<svg xmlns="http://www.w3.org/2000/svg" width="1200" height="760" viewBox="0 0 1200 760"><style>text{font-family:Menlo,Monaco,monospace;fill:#15202b}.title{font-size:28px;font-weight:700}.subtitle{font-size:16px;fill:#425466}.axis{stroke:#ccd6dd;stroke-width:1}.label{font-size:13px}.small{font-size:12px;fill:#5b6875}</style><rect width="100%" height="100%" fill="#f7fafc"/><text x="80" y="45" class="title">Candle vs Burn true pre/post benchmark</text><text x="80" y="68" class="subtitle">Top: ROUGE-L before/after. Bottom-left: avg latency before/after. Right: train wall time.</text><line x1="80" y1="80" x2="80" y2="300" class="axis"/><line x1="80" y1="300" x2="560" y2="300" class="axis"/><text x="80" y="62" class="label">ROUGE-L</text><rect x="80" y="300" width="70" height="0" fill="#2b6cb0" rx="6"/><rect x="180" y="105.91824703434432" width="70" height="194.08175296565568" fill="#2f855a" rx="6"/><rect x="330" y="295.483932853717" width="70" height="4.516067146282973" fill="#2b6cb0" rx="6"/><rect x="430" y="88.16376766597813" width="70" height="211.83623233402187" fill="#2f855a" rx="6"/><text x="80" y="348" class="small">candle</text><text x="330" y="348" class="small">burn</text><text x="80" y="324" class="small">base</text><text x="180" y="324" class="small">ft</text><text x="330" y="324" class="small">base</text><text x="430" y="324" class="small">ft</text><text x="80" y="292" class="small">0.000</text><text x="180" y="97.91824703434432" class="small">0.088</text><text x="330" y="287.483932853717" class="small">0.002</text><text x="430" y="80.16376766597813" class="small">0.096</text><line x1="80" y1="380" x2="80" y2="600" class="axis"/><line x1="80" y1="600" x2="560" y2="600" class="axis"/><text x="80" y="362" class="label">Avg latency (ms)</text><rect x="80" y="380" width="70" height="220" fill="#805ad5" rx="6"/><rect x="180" y="481.8112543962485" width="70" height="118.18874560375149" fill="#dd6b20" rx="6"/><rect x="330" y="431.8405627198124" width="70" height="168.15943728018757" fill="#805ad5" rx="6"/><rect x="430" y="469.49589683470106" width="70" height="130.50410316529894" fill="#dd6b20" rx="6"/><text x="80" y="624" class="small">base</text><text x="180" y="624" class="small">ft</text><text x="330" y="624" class="small">base</text><text x="430" y="624" class="small">ft</text><text x="80" y="372" class="small">171</text><text x="180" y="473.8112543962485" class="small">92</text><text x="330" y="423.8405627198124" class="small">130</text><text x="430" y="461.49589683470106" class="small">101</text><line x1="720" y1="170" x2="720" y2="410" class="axis"/><line x1="720" y1="410" x2="1080" y2="410" class="axis"/><text x="720" y="140" class="label">Train wall time (s)</text><rect x="760" y="254.8170142245546" width="90" height="155.1829857754454" fill="#c05621" rx="6"/><rect x="900" y="170" width="90" height="240" fill="#3182ce" rx="6"/><text x="760" y="434" class="small">candle</text><text x="900" y="434" class="small">burn</text><text x="760" y="246.8170142245546" class="small">14.05s</text><text x="900" y="162" class="small">21.72s</text></svg>