<svg xmlns="http://www.w3.org/2000/svg" width="1500" height="362" viewBox="0 0 1500 362"><style>text{font-family:Menlo,Monaco,monospace;fill:#15202b}.title{font-size:28px;font-weight:700}.subtitle{font-size:15px;fill:#425466}.label{font-size:15px;font-weight:600}.small{font-size:12px;fill:#425466}.axis{stroke:#d0d7de;stroke-width:1}</style><rect width="100%" height="100%" fill="#f8fafc"/><text x="40" y="42" class="title">All backend true pre/post comparison</text><text x="40" y="68" class="subtitle">Each row shows before vs after fine-tuning for one backend.</text><text x="40" y="92" class="subtitle">mlx wins on held-out ROUGE-L delta, mlx trains fastest, and mlx has the lowest fine-tuned latency.</text><text x="360" y="118" class="label">ROUGE-L delta</text><text x="770" y="118" class="label">Train wall time</text><text x="1180" y="118" class="label">Fine-tuned latency</text><line x1="340" y1="124" x2="1450" y2="124" class="axis"/><text x="40" y="148" class="label">mlx</text><rect x="360" y="154" width="220" height="18" rx="4" fill="#0f766e"/><text x="596" y="148" class="small">0.0042 -> 0.1274 (delta 0.1232)</text><rect x="770" y="154" width="63.73244947751232" height="18" rx="4" fill="#1d4ed8"/><text x="1006" y="148" class="small">6.29s</text><rect x="1180" y="154" width="49.69846445221818" height="18" rx="4" fill="#b45309"/><text x="1416" y="148" class="small">22.86 ms (base 52.94)</text><text x="40" y="196" class="label">pytorch</text><rect x="360" y="202" width="182.29847141545898" height="18" rx="4" fill="#0f766e"/><text x="596" y="196" class="small">0.0040 -> 0.1061 (delta 0.1021)</text><rect x="770" y="202" width="93.49721493348063" height="18" rx="4" fill="#1d4ed8"/><text x="1006" y="196" class="small">9.23s</text><rect x="1180" y="202" width="151.57384970655625" height="18" rx="4" fill="#b45309"/><text x="1416" y="196" class="small">69.72 ms (base 189.31)</text><text x="40" y="244" class="label">burn</text><rect x="360" y="250" width="168.2923824716911" height="18" rx="4" fill="#0f766e"/><text x="596" y="244" class="small">0.0021 -> 0.0963 (delta 0.0942)</text><rect x="770" y="250" width="220" height="18" rx="4" fill="#1d4ed8"/><text x="1006" y="244" class="small">21.72s</text><rect x="1180" y="250" width="220" height="18" rx="4" fill="#b45309"/><text x="1416" y="244" class="small">101.20 ms (base 130.40)</text><text x="40" y="292" class="label">candle</text><rect x="360" y="298" width="157.54608612864487" height="18" rx="4" fill="#0f766e"/><text x="596" y="292" class="small">0.0000 -> 0.0882 (delta 0.0882)</text><rect x="770" y="298" width="142.25107029415827" height="18" rx="4" fill="#1d4ed8"/><text x="1006" y="292" class="small">14.05s</text><rect x="1180" y="298" width="199.23913043478262" height="18" rx="4" fill="#b45309"/><text x="1416" y="292" class="small">91.65 ms (base 170.60)</text></svg>